<?xml version="1.0" encoding="UTF-8" standalone="no"?>
<!-- Created with Inkscape (http://www.inkscape.org/) -->

<svg
   width="106mm"
   height="106mm"
   viewBox="0 0 106 106"
   version="1.1"
   id="svg5"
   inkscape:version="1.1.2 (b8e25be8, 2022-02-05)"
   sodipodi:docname="logoius.svg"
   inkscape:export-filename="/Users/xunorus/xunserver/iurisnaturalis/design/logo.png"
   inkscape:export-xdpi="96"
   inkscape:export-ydpi="96"
   xmlns:inkscape="http://www.inkscape.org/namespaces/inkscape"
   xmlns:sodipodi="http://sodipodi.sourceforge.net/DTD/sodipodi-0.dtd"
   xmlns="http://www.w3.org/2000/svg"
   xmlns:svg="http://www.w3.org/2000/svg">
  <sodipodi:namedview
     id="namedview7"
     pagecolor="#ffffff"
     bordercolor="#666666"
     borderopacity="1.0"
     inkscape:pageshadow="2"
     inkscape:pageopacity="0.0"
     inkscape:pagecheckerboard="0"
     inkscape:document-units="mm"
     showgrid="false"
     inkscape:zoom="1"
     inkscape:cx="210"
     inkscape:cy="185.5"
     inkscape:window-width="1312"
     inkscape:window-height="763"
     inkscape:window-x="112"
     inkscape:window-y="25"
     inkscape:window-maximized="0"
     inkscape:current-layer="layer1" />
  <defs
     id="defs2" />
  <g
     inkscape:label="Layer 1"
     inkscape:groupmode="layer"
     id="layer1">
    <rect
       style="fill:none;stroke:none;stroke-width:0.72467;stop-color:#000000"
       id="rect116"
       width="106"
       height="106"
       x="-1.2212453e-15"
       y="5.7731597e-15"
       ry="24.733335"
       inkscape:export-filename="/Users/xunorus/xunserver/iusdappv2/design/favicon.png"
       inkscape:export-xdpi="96"
       inkscape:export-ydpi="96" />
    <path
       style="fill:#6f42c1;fill-opacity:1;stroke:#6f42c1;stroke-width:2.03809;stroke-miterlimit:4;stroke-dasharray:none;stroke-opacity:1"
       d="M 46.52658,96.175574 C 37.149964,94.482404 29.841585,90.807704 23.25885,84.476385 16.722426,78.189612 12.535003,70.636721 10.587283,61.620573 10.023528,59.010909 9.9958758,58.59694 10.002465,52.865475 c 0.0066,-5.753612 0.03314,-6.132667 0.608236,-8.693578 1.56888,-6.986168 4.768542,-13.72514 8.907662,-18.760879 1.580971,-1.923442 5.589236,-5.838044 7.319761,-7.148717 5.234968,-3.96488 11.476556,-6.810394 18.043079,-8.225759 2.594201,-0.5591613 3.051801,-0.5904104 8.645716,-0.5904104 5.59392,0 6.051519,0.031249 8.645715,0.5904104 6.434564,1.386922 12.351535,4.041506 17.555513,7.876082 2.267796,1.671035 6.345127,5.646789 8.13868,7.935914 4.204371,5.366068 7.128836,11.652686 8.596973,18.480601 0.554947,2.580918 0.589194,3.074124 0.592733,8.536336 0.0041,6.691426 -0.257734,8.511773 -1.982687,13.772232 -4.282635,13.060429 -14.631053,23.455259 -27.70083,27.825085 -4.854295,1.623007 -7.01253,1.96305 -13.080436,2.060895 -4.646073,0.07491 -5.680006,0.02853 -7.766,-0.348113 z m 11.984047,-0.452266 c 2.502486,-0.840247 5.386885,-3.000037 6.904027,-5.169609 l 0.492482,-0.704262 -0.611708,-0.116671 c -4.108784,-0.783636 -6.5219,-1.945257 -8.837775,-4.254317 -0.914785,-0.91209 -1.83052,-1.904451 -2.034974,-2.205248 L 54.050961,82.7263 53.36842,83.601342 c -2.764475,3.544148 -5.932756,5.352641 -10.727015,6.123131 -0.727084,0.116853 -0.796609,0.180617 -0.599166,0.54954 0.48494,0.906112 2.698644,3.058842 4.052624,3.940992 2.54967,1.661181 3.636987,1.940577 7.603033,1.953665 2.940647,0.0097 3.654012,-0.05631 4.812731,-0.445362 z M 46.664964,95.143176 c -1.684835,-0.996714 -3.663508,-2.757294 -4.726873,-4.205886 -0.705069,-0.960491 -0.902608,-1.092194 -1.820138,-1.21352 -1.567192,-0.207232 -3.933871,-0.941094 -5.494952,-1.703869 -1.581591,-0.772804 -4.707532,-3.58174 -5.384148,-4.838141 -0.399461,-0.741756 -0.481722,-0.783601 -1.540439,-0.783601 -2.339076,0 -5.515604,-1.129273 -7.847922,-2.789981 l -1.081095,-0.769784 0.750032,0.95953 c 1.261433,1.613773 5.03786,5.416874 6.771794,6.819622 5.483171,4.435878 11.792731,7.357369 19.250934,8.913702 2.617441,0.546192 2.670879,0.527721 1.122807,-0.388072 z m 16.326147,0.03497 c 5.992856,-1.34409 11.517414,-3.881114 16.518278,-7.585636 1.814099,-1.34385 6.39763,-5.662606 7.198629,-6.782796 l 0.431918,-0.604024 -0.747976,0.441314 c -1.234545,0.728401 -3.892696,1.547477 -5.470591,1.685695 l -1.481945,0.129812 -1.08104,1.375596 c -2.599248,3.307486 -5.916715,5.205821 -10.137291,5.80082 l -1.787294,0.251971 -0.829235,1.175164 c -0.89547,1.269025 -2.845762,2.999236 -4.421954,3.922942 -1.58404,0.928303 -1.51801,0.935215 1.808501,0.189142 z M 40.205693,87.755263 c -1.280845,-3.199494 -1.28538,-7.510546 -0.01127,-10.71674 0.09563,-0.240636 -0.622702,0.318645 -1.596285,1.24285 -2.159413,2.049888 -4.598721,3.325553 -7.396598,3.868134 -1.015423,0.196917 -1.846549,0.425323 -1.846943,0.507566 -3.94e-4,0.08224 0.774759,0.968223 1.722566,1.968846 1.932523,2.04021 3.77043,3.247324 5.968284,3.919867 0.405577,0.124107 0.868173,0.246275 1.324993,0.354275 1.12294,0.26548 2.210973,0.445341 2.331337,0.3579 0.04495,-0.03265 -0.178286,-0.708867 -0.496077,-1.502698 z m 4.907945,0.954265 c 2.984079,-0.774383 6.296777,-3.077144 8.056595,-5.600397 l 0.495864,-0.710972 h -0.854949 c -3.281687,0 -8.035548,-2.457526 -10.33977,-5.34518 -0.534934,-0.670379 -1.067437,-1.187258 -1.183343,-1.148622 -0.115903,0.03864 -0.501524,0.900281 -0.856933,1.91477 -0.575898,1.643862 -0.646636,2.130107 -0.650249,4.469651 -0.0042,2.714435 0.238019,3.973481 1.169482,6.079211 l 0.451183,1.019971 1.031207,-0.125162 c 0.567163,-0.06887 1.773575,-0.317819 2.680913,-0.55327 z M 70.016143,88.8261 c 2.357687,-0.522503 4.703261,-1.897524 6.754093,-3.959379 1.921114,-1.931437 2.18595,-2.468562 1.217158,-2.468562 -1.116337,0 -3.465557,-0.697479 -5.209543,-1.546705 -1.915665,-0.932828 -3.615846,-2.302622 -4.986568,-4.017561 -0.487058,-0.609364 -0.808184,-0.911049 -0.713629,-0.670412 1.694385,4.311862 1.791651,7.544426 0.346186,11.505099 l -0.613792,1.681835 0.905681,-0.10761 c 0.498121,-0.0592 1.533306,-0.246696 2.300414,-0.416705 z M 66.76645,88.184784 c 0.887078,-2.069465 1.134923,-3.573446 1.043734,-6.333526 -0.07053,-2.134415 -0.1944,-2.925767 -0.662698,-4.233432 -0.316785,-0.884567 -0.62397,-1.656309 -0.682641,-1.714978 -0.0587,-0.05867 -1.024858,0.819481 -2.147089,1.951449 -1.503599,1.516653 -2.454771,2.271613 -3.615384,2.869597 -1.598632,0.823666 -4.432207,1.674265 -5.57744,1.674265 -0.582622,0 -0.61003,0.03628 -0.371851,0.492212 0.141426,0.270715 1.055483,1.28193 2.031237,2.247141 2.500899,2.473886 5.699239,3.967257 8.61814,4.024001 0.909741,0.01769 0.95014,-0.01124 1.363992,-0.976729 z M 28.248628,81.501739 c -0.527947,-0.986477 -1.07433,-2.916197 -1.307146,-4.616578 -0.369035,-2.695281 0.08415,-5.429885 1.411809,-8.519207 0.130675,-0.304067 -0.05904,-0.383942 -1.2272,-0.516691 -3.912883,-0.444655 -7.763486,-2.535267 -10.082047,-5.473859 -0.508854,-0.644932 -0.987616,-1.1781 -1.063914,-1.184816 -0.257299,-0.02265 -1.226992,2.928388 -1.502203,4.5716 -0.96365,5.753682 2.31092,12.081344 7.58216,14.651499 1.699987,0.828882 4.167176,1.517823 5.496706,1.534905 0.885519,0.01138 0.92383,-0.01337 0.691835,-0.446853 z m 3.597041,0.0275 c 2.707116,-0.692364 4.56383,-1.785349 6.750839,-3.973996 1.052786,-1.053573 1.914155,-2.003694 1.914155,-2.111379 0,-0.107686 -0.812148,-0.355078 -1.804775,-0.549759 -1.167939,-0.229066 -2.538102,-0.716557 -3.883001,-1.381532 -1.758529,-0.869491 -2.374473,-1.328951 -4.004019,-2.986772 -1.059187,-1.077564 -1.976155,-1.908846 -2.037706,-1.847296 -0.06155,0.06156 -0.369903,0.835651 -0.685226,1.720218 -0.442952,1.242602 -0.594604,2.147234 -0.666944,3.978433 -0.106101,2.68584 0.160953,4.393177 0.984008,6.290984 0.65654,1.513852 0.769567,1.542206 3.432669,0.861099 z m 21.086056,-1.373376 c -1.096855,-2.937004 -1.112475,-7.299025 -0.03623,-10.117679 0.09188,-0.240637 -0.598783,0.275232 -1.534809,1.146375 -1.080671,1.005762 -2.273511,1.864202 -3.267986,2.351841 -1.60837,0.788661 -4.544791,1.642658 -5.648185,1.642658 -0.341709,0 -0.621289,0.08312 -0.621289,0.184724 0,0.348072 2.256899,2.768129 3.440842,3.689595 0.650877,0.506578 1.693422,1.169868 2.316765,1.473976 1.347185,0.657249 4.091097,1.404352 5.219834,1.421239 l 0.805073,0.01205 -0.674016,-1.804774 z m 4.290175,1.373379 c 2.565051,-0.656028 4.574898,-1.805123 6.49855,-3.715426 0.914033,-0.907684 1.774024,-1.862782 1.911093,-2.12244 0.236568,-0.448131 0.191531,-0.48004 -0.886954,-0.628368 -3.104025,-0.426914 -6.096249,-1.94178 -8.788852,-4.449527 -0.605871,-0.564276 -0.80615,-0.667448 -0.692108,-0.356537 1.168434,3.185514 0.919217,7.603057 -0.638679,11.320863 -0.216963,0.517773 0.429885,0.505678 2.59695,-0.04857 z m 21.957227,0.157945 c 0.121095,-0.150398 0.484545,-1.011768 0.807655,-1.914156 1.129284,-3.153843 0.972554,-7.428789 -0.379879,-10.361343 l -0.490704,-1.064014 -1.03612,1.318824 c -2.043233,2.600704 -5.282938,4.514948 -8.866415,5.238906 l -1.997404,0.403526 0.945154,1.204218 c 1.264749,1.611431 2.775177,2.876377 4.554211,3.814059 2.413431,1.272058 5.937311,2.013512 6.463502,1.35998 z m 4.600249,-0.490801 c 3.671507,-1.159827 5.366761,-2.898894 8.240907,-8.453886 l 1.430449,-2.7647 v -1.95835 c 0,-1.95879 -0.465735,-4.320181 -1.186514,-6.015886 l -0.346641,-0.815518 -2.022622,2.029011 c -2.821172,2.830087 -5.440785,4.1384 -9.276506,4.632965 l -1.128581,0.145518 0.53665,1.213476 c 0.923896,2.089085 1.227088,3.854135 1.119446,6.516944 -0.09147,2.262608 -0.43697,3.748647 -1.368539,5.886269 -0.17053,0.391306 -0.105262,0.408253 1.049604,0.27252 0.6773,-0.07961 2.005854,-0.389364 2.952347,-0.688363 z M 54.864097,79.499581 c 0.506125,-1.546765 0.591427,-2.180061 0.59671,-4.429903 0.0058,-2.281782 -0.07185,-2.861177 -0.59055,-4.429902 C 54.542071,69.647149 54.186459,68.835 54.080023,68.835 c -0.22094,0 -1.000268,1.984503 -1.315274,3.349269 -0.356348,1.543873 -0.262919,4.733322 0.187485,6.400374 0.527871,1.953747 0.839538,2.719712 1.106656,2.719712 0.118061,0 0.480403,-0.812148 0.805207,-1.804774 z M 40.626392,74.358706 c -1.1391,-2.910273 -1.2968,-3.682413 -1.306874,-6.398748 -0.0096,-2.599364 0.10423,-3.315066 0.894956,-5.624974 0.0736,-0.215018 -0.325238,0.121023 -0.886317,0.746756 -1.986078,2.214941 -5.346505,4.012114 -8.728281,4.66793 -1.134243,0.219959 -1.240172,0.28517 -0.992638,0.611092 2.633624,3.467634 5.242229,5.212149 9.04396,6.048196 1.888302,0.41526 2.154744,0.40848 1.975194,-0.05025 z m 3.557734,0.04023 c 0.927395,-0.188432 2.519243,-0.742806 3.53744,-1.23194 1.517862,-0.729171 2.20726,-1.245327 3.827942,-2.866009 1.141948,-1.141948 1.860103,-2.015529 1.700636,-2.068684 -0.151819,-0.05061 -1.086853,0.06948 -2.077854,0.26685 -3.27013,0.651296 -6.574433,2.692711 -8.69759,5.373414 -0.804483,1.015745 -0.762593,1.028643 1.709426,0.526369 z m 21.240921,-0.14961 C 65.282877,73.97861 64.499787,73.107715 63.68484,72.314003 61.512383,70.198152 59.09577,69.019965 55.408743,68.27911 l -0.743296,-0.149356 0.514443,0.735455 c 1.716031,2.453248 5.453551,4.879504 8.519402,5.530477 2.040373,0.433233 2.030559,0.434064 1.725755,-0.14636 z m 4.930824,-0.08584 c 2.885838,-0.732544 5.636823,-2.603623 7.72745,-5.255818 l 0.711496,-0.902613 -1.476099,-0.25705 C 73.303315,67.04875 70.13331,65.216678 67.697084,62.187288 l -0.684013,-0.850557 0.519618,1.431517 c 1.191205,3.281744 1.188733,6.634701 -0.0074,10.100346 -0.299504,0.867732 -0.544555,1.655303 -0.544555,1.750157 0,0.209545 1.613615,-0.0081 3.37517,-0.455267 z M 41.805632,72.496865 c 0.682665,-2.052248 0.961838,-4.745598 0.680109,-6.561392 -0.242953,-1.565869 -0.943215,-3.812735 -1.299241,-4.168761 -0.124617,-0.124617 -0.436132,0.503195 -0.807772,1.627946 -0.526478,1.593363 -0.604564,2.171237 -0.602116,4.455919 0.0025,2.295187 0.07973,2.85144 0.614802,4.425749 0.336597,0.990342 0.690339,1.752201 0.786097,1.693019 0.09576,-0.05918 0.378412,-0.721798 0.628121,-1.47248 z m 23.679061,0.111756 c -0.517063,-1.347412 -0.567333,-1.763794 -0.574436,-4.758044 -0.0066,-2.88214 0.05209,-3.440194 0.484429,-4.58639 0.270715,-0.71774 0.49221,-1.346513 0.49221,-1.397272 0,-0.05076 -0.615264,0.536484 -1.367258,1.304981 -2.248506,2.297877 -4.841958,3.789239 -7.597606,4.369002 l -1.198861,0.252231 1.554853,0.394859 c 2.881274,0.731708 5.899079,2.602396 7.761696,4.81134 0.503611,0.59726 0.937257,1.085927 0.963649,1.085927 0.02637,0 -0.207009,-0.664485 -0.518676,-1.476634 z M 46.059657,70.052386 c 1.526414,-0.948456 4.415793,-2.072869 5.427609,-2.112176 0.27958,-0.01085 -0.138467,-0.19243 -0.928995,-0.403488 -2.948367,-0.787164 -5.809799,-2.495805 -7.699455,-4.597559 l -0.990927,-1.102147 0.544845,1.566699 c 0.468807,1.348055 0.544815,1.950846 0.544646,4.319343 -1.64e-4,2.319886 -0.08441,3.015184 -0.535847,4.422556 l -0.535651,1.669909 1.306526,-1.396679 c 0.718589,-0.768174 2.008852,-1.833081 2.867249,-2.366458 z m 21.138513,2.344829 c 0.697324,-2.257669 0.900613,-4.160426 0.653371,-6.115601 -0.226894,-1.794308 -1.001624,-4.446953 -1.298764,-4.446953 -0.09542,0 -0.407337,0.713706 -0.693141,1.586014 -0.754086,2.301563 -0.748984,6.329968 0.01108,8.753538 0.291898,0.930754 0.60788,1.692282 0.702187,1.692282 0.0943,0 0.37567,-0.661176 0.625268,-1.46928 z M 13.884129,68.88969 c -0.149101,-2.195711 0.205843,-4.406628 1.056228,-6.579144 l 0.681587,-1.741282 -0.711363,-1.828358 c -1.306785,-3.358727 -1.301524,-7.710578 0.01337,-11.053895 l 0.703073,-1.787675 -0.703323,-1.689455 C 14.409453,42.974604 14.166179,41.95554 14.018769,40.41916 13.834465,38.498255 13.851828,37.911367 14.161837,35.583387 l 0.101961,-0.765663 -0.314531,0.558076 c -0.48339,0.857688 -2.073392,5.574526 -2.548855,7.561334 -0.730611,3.05299 -1.096103,6.393574 -1.098226,10.037722 -0.0031,5.369659 0.766457,9.815314 2.53778,14.659989 0.439302,1.201519 0.851427,2.356852 0.915832,2.567409 0.214651,0.701741 0.244433,0.397139 0.128335,-1.312564 z m 80.742197,-2.406366 c 2.806266,-8.568805 2.882663,-17.852157 0.217063,-26.375071 -0.307971,-0.984696 -0.633983,-1.868996 -0.724469,-1.965109 -0.09049,-0.09611 -0.221031,0.691425 -0.290112,1.750085 -0.09259,1.419163 -0.325706,2.476959 -0.887351,4.026488 l -0.761764,2.101651 0.537169,1.289138 c 0.76342,1.832136 1.1632,3.854983 1.167591,5.907942 0.005,2.246011 -0.255965,3.614813 -1.081387,5.676206 l -0.656032,1.638365 0.624778,1.580555 c 0.753184,1.90539 1.116444,3.526419 1.116444,4.982109 0,0.595669 0.04117,1.083035 0.09141,1.083035 0.05027,0 0.341275,-0.762927 0.646658,-1.695394 z m -66.493235,0.218761 c -0.957935,-2.234993 -1.033313,-2.613593 -1.121525,-5.633087 -0.09356,-3.202679 0.03664,-4.0469 0.982466,-6.37025 l 0.455947,-1.119995 -1.024688,0.102628 c -4.033937,0.404015 -8.018707,2.571366 -10.216479,5.556827 l -0.974972,1.324405 0.991099,1.288009 c 2.496577,3.244488 6.527822,5.337047 10.873995,5.644522 0.362696,0.02566 0.364739,-0.02177 0.03415,-0.793059 z m 24.873923,0.201981 c -0.772081,-1.084287 -3.420758,-3.44529 -4.642829,-4.138566 -1.970161,-1.117666 -6.322197,-2.23234 -6.322197,-1.619283 0,0.133629 0.762927,1.011085 1.695395,1.949902 2.36065,2.376725 4.988352,3.715431 8.258212,4.207225 0.601593,0.09048 1.17434,0.176791 1.272772,0.1918 0.09843,0.01501 -0.01918,-0.250973 -0.261353,-0.591078 z m 25.434357,0.34492 c -0.504595,-0.86533 -2.039554,-2.469221 -3.215537,-3.35994 -1.637005,-1.239918 -3.598219,-2.165697 -5.543765,-2.616897 -2.459236,-0.570336 -2.536046,-0.436384 -0.815319,1.421729 2.33471,2.521111 4.490498,3.744071 7.882444,4.471639 1.905908,0.408817 1.881187,0.407598 1.692177,0.08347 z m 4.399474,-0.314831 c 2.864812,-0.708347 6.440434,-3.150718 8.083326,-5.521407 l 0.606416,-0.875066 -0.806753,-1.099017 c -1.66061,-2.262208 -4.418424,-4.216724 -7.226707,-5.121719 -1.055954,-0.340291 -3.828312,-0.805941 -3.828312,-0.64301 0,0.04387 0.236633,0.642843 0.525844,1.331046 0.804496,1.91434 1.074318,3.698416 0.958242,6.335947 -0.0967,2.197135 -0.404733,3.503125 -1.363272,5.780041 -0.133101,0.316161 -0.02853,0.34926 0.792664,0.250959 0.520296,-0.06227 1.536638,-0.259277 2.258552,-0.437774 z m -50.962497,0.03295 c 1.818384,-0.469401 3.69216,-1.389632 5.286638,-2.596323 1.413013,-1.069358 3.315935,-3.238774 2.948386,-3.36129 -0.508958,-0.169652 -3.366733,0.696624 -5.071724,1.537392 -1.403665,0.692173 -2.275049,1.325951 -3.55486,2.585527 -2.292025,2.255787 -2.237076,2.513255 0.39156,1.834694 z m 25.698486,-0.116437 c 1.980611,-0.548857 3.6661,-1.421867 5.243872,-2.71611 1.146788,-0.940712 2.912477,-2.964047 2.738458,-3.138062 -0.171009,-0.171018 -3.527766,0.685474 -4.675472,1.19297 -1.640593,0.725438 -3.744515,2.274701 -4.930989,3.631021 -0.552112,0.631147 -1.003841,1.22306 -1.003841,1.315364 0,0.28685 0.926567,0.186299 2.627972,-0.285183 z M 30.218022,65.744094 c 2.106448,-2.393049 4.734879,-4.062324 7.527953,-4.780884 0.858828,-0.220946 1.413841,-0.447195 1.233364,-0.502776 -0.180478,-0.05558 -0.918795,-0.271698 -1.640705,-0.480262 -2.478284,-0.715993 -4.224036,-1.805312 -6.418833,-4.00524 -1.123992,-1.126622 -2.07836,-2.013663 -2.120818,-1.971204 -0.04246,0.04246 -0.377967,0.974937 -0.745577,2.072177 -0.576384,1.720395 -0.667644,2.306698 -0.663033,4.2597 0.003,1.245597 0.103177,2.70771 0.222747,3.249142 0.281245,1.273537 1.096304,3.50017 1.281237,3.50017 0.07889,0 0.674532,-0.60337 1.323665,-1.340823 z m 49.762534,-0.534393 c 0.58048,-1.57333 0.641407,-1.998341 0.656282,-4.578222 0.01414,-2.449868 -0.05589,-3.056053 -0.505149,-4.375212 -0.882134,-2.590058 -0.690826,-2.556387 -2.717838,-0.478336 -2.024201,2.075163 -4.053403,3.377649 -6.386079,4.099045 -0.842232,0.260465 -1.67899,0.523988 -1.859467,0.585609 -0.180476,0.06162 0.244166,0.247024 0.943649,0.412007 2.710512,0.639308 6.134464,2.819942 7.861516,5.006816 0.511326,0.647464 1.028124,1.151427 1.148442,1.119916 0.120318,-0.03151 0.506711,-0.837737 0.858644,-1.791623 z M 54.847974,65.06138 c 0.534526,-1.572786 0.614446,-2.142216 0.621722,-4.429903 0.0085,-2.671984 -0.477253,-5.055593 -1.243972,-6.104134 -0.270632,-0.370117 -0.337248,-0.293647 -0.76705,0.880564 -0.258874,0.707233 -0.568514,1.72887 -0.688084,2.270302 -0.329283,1.491064 -0.270253,4.696263 0.113788,6.178327 0.423941,1.63603 0.964411,3.009619 1.184211,3.009619 0.09131,0 0.442038,-0.812149 0.779385,-1.804775 z m -2.223855,-0.184636 c -0.571506,-1.527715 -0.652534,-6.031561 -0.143642,-7.983962 l 0.404291,-1.551087 -1.757151,1.496928 c -1.960253,1.669955 -4.25452,2.908781 -6.106302,3.297198 -0.676084,0.141809 -1.229243,0.31357 -1.229243,0.381693 0,0.06812 0.566044,0.254861 1.257874,0.414975 2.329503,0.539134 4.82463,2.003629 6.7137,3.940553 0.594338,0.609393 1.112212,1.076392 1.15083,1.037775 0.03862,-0.03862 -0.09204,-0.503953 -0.290357,-1.034073 z m 5.965311,-1.969622 c 1.252058,-0.861436 3.118941,-1.681331 4.654041,-2.04396 0.671818,-0.158697 1.073814,-0.336197 0.893337,-0.394445 -0.180476,-0.05825 -1.017235,-0.314339 -1.859467,-0.56909 -1.968076,-0.59529 -3.948233,-1.773226 -5.756892,-3.424602 -0.808473,-0.738161 -1.362982,-1.121095 -1.267122,-0.875042 0.987991,2.53588 0.988437,7.295719 8.27e-4,9.844228 -0.101078,0.260861 0.343036,-0.02886 1.099899,-0.717526 0.698193,-0.635274 1.704068,-1.454078 2.235286,-1.819563 z M 39.819489,59.373604 c -1.922119,-2.721141 -5.767105,-5.022105 -9.250928,-5.53605 l -1.082297,-0.159665 0.703076,0.887704 c 1.141096,1.440751 2.928037,2.958541 4.431765,3.764245 1.431385,0.766941 4.27654,1.721821 5.193482,1.743017 l 0.507109,0.01172 z m 6.219843,-0.04595 c 0.829777,-0.288567 2.048967,-0.851574 2.709309,-1.251125 1.289017,-0.779943 3.406171,-2.710476 4.172468,-3.80468 L 53.391628,53.599993 51.958531,53.792 c -1.7668,0.236718 -3.82795,0.96951 -5.468617,1.944235 -1.248185,0.741548 -4.447926,3.747373 -4.447926,4.178365 0,0.351292 2.249031,0.02107 3.997344,-0.586946 z m 19.215053,0.134028 c -0.751456,-1.055325 -3.196513,-3.220666 -4.430091,-3.923295 -2.043523,-1.163957 -5.875432,-2.201389 -5.875432,-1.590686 0,0.14127 0.762932,1.017372 1.695394,1.946888 1.302204,1.298078 2.126643,1.902467 3.554861,2.606032 1.755536,0.864806 3.86055,1.525078 4.991702,1.565733 l 0.507109,0.01822 z m 4.874394,0.191501 c 2.533963,-0.648078 4.555163,-1.812766 6.527473,-3.761363 0.935,-0.923757 1.699999,-1.7857 1.699999,-1.915429 0,-0.35344 -0.808432,-0.286935 -2.629526,0.216317 -3.137486,0.867031 -5.6935,2.543742 -7.65703,5.022899 l -0.688238,0.868972 h 0.530284 c 0.291666,0 1.289331,-0.194128 2.217038,-0.431396 z M 16.986868,58.753139 c 1.902472,-2.494686 5.252538,-4.542675 8.757453,-5.353676 0.618003,-0.142999 0.585036,-0.168603 -0.565196,-0.438965 -2.819504,-0.662724 -5.462131,-2.269116 -7.688207,-4.673486 -0.787673,-0.850758 -1.481015,-1.546834 -1.540761,-1.546834 -0.146444,0 -0.949915,2.061427 -1.278976,3.281409 -0.334722,1.240972 -0.328924,5.2619 0.0095,6.562819 0.344328,1.323755 1.125433,3.281409 1.309286,3.281409 0.08162,0 0.530243,-0.500704 0.996939,-1.112676 z m 75.732483,-0.96555 c 0.540462,-1.549038 0.611262,-2.064223 0.616306,-4.484592 0.005,-2.427852 -0.06218,-2.930767 -0.599315,-4.484594 -0.332759,-0.962546 -0.684995,-1.876184 -0.782758,-2.03031 -0.125799,-0.198324 -0.476409,0.09992 -1.199637,1.020472 -1.818292,2.314398 -4.903027,4.291395 -7.872588,5.045524 -1.571505,0.399087 -1.565957,0.462508 0.06887,0.78696 2.273113,0.451129 5.583402,2.551824 7.576581,4.808057 0.690876,0.782054 1.329439,1.346913 1.419032,1.255242 0.0896,-0.09167 0.437682,-0.954212 0.773514,-1.916759 z M 65.498567,58.17042 c -0.548962,-1.379828 -0.587392,-1.698928 -0.586193,-4.867423 8.27e-4,-3.127396 0.04556,-3.505751 0.571335,-4.870747 l 0.570054,-1.47996 -1.296821,1.415251 c -2.078845,2.268698 -5.017028,4.016564 -7.729855,4.598339 l -1.312564,0.281486 0.875048,0.162521 c 3.091813,0.574245 7.452286,3.344487 9.012538,5.725731 0.543959,0.830189 0.519295,0.600317 -0.103542,-0.965198 z m 7.060526,-3.268924 c 1.59664,-0.822177 2.160906,-1.024259 4.156449,-1.488559 0.596495,-0.138786 0.514037,-0.189141 -0.905218,-0.552736 -2.767703,-0.709049 -5.719223,-2.504362 -7.620989,-4.635596 -0.567482,-0.635958 -0.959722,-0.959401 -0.871641,-0.718765 0.78361,2.140798 1.015358,3.444382 1.030604,5.797157 0.01447,2.236731 -0.05473,2.721977 -0.62402,4.375212 l -0.640324,1.859465 1.862526,-1.867494 c 1.393054,-1.396767 2.303663,-2.09465 3.612613,-2.768684 z m -30.899217,3.487685 c 0.697253,-2.009222 0.852173,-2.978332 0.845873,-5.291404 -0.0051,-1.891728 -0.113755,-2.674355 -0.572718,-4.127232 -0.311499,-0.986066 -0.653446,-1.792846 -0.759886,-1.792846 -0.30285,0 -1.019672,2.132232 -1.3189,3.923144 -0.165857,0.992685 -0.214326,2.259266 -0.124424,3.251378 0.148996,1.644209 1.097833,5.076073 1.403426,5.076073 0.09132,0 0.328299,-0.467601 0.526629,-1.039113 z m 4.031059,-2.663868 c 1.494994,-0.98145 3.698049,-1.925154 5.429618,-2.325843 0.608607,-0.140832 0.560933,-0.174114 -0.656282,-0.458146 -2.259399,-0.527224 -4.75719,-1.923698 -6.685604,-3.737811 -0.955173,-0.89856 -1.735408,-1.598906 -1.733857,-1.556327 0.0016,0.04258 0.205228,0.71729 0.452611,1.499358 0.698715,2.20889 0.651117,6.378133 -0.09739,8.530457 l -0.554714,1.595085 1.097956,-1.231879 c 0.603875,-0.677534 1.840323,-1.719237 2.747662,-2.314894 z m 21.486879,2.116966 c 0.677365,-2.050987 0.923581,-4.243995 0.685807,-6.108247 -0.242934,-1.904661 -1.043999,-4.617804 -1.314127,-4.450855 -0.105046,0.06492 -0.420152,0.781452 -0.700243,1.592293 -0.731629,2.117997 -0.736929,6.437681 -0.01075,8.748049 0.27418,0.872308 0.586094,1.586014 0.693133,1.586014 0.107048,0 0.397829,-0.615264 0.64618,-1.367254 z m -27.367893,-0.28891 c -0.401555,-1.093217 -0.476614,-1.761317 -0.477511,-4.250372 -9.1e-4,-2.570332 0.0684,-3.152987 0.534677,-4.493516 l 0.535745,-1.54025 -1.170099,1.263846 c -2.000686,2.16098 -4.931205,3.853511 -7.684747,4.438352 l -1.196675,0.25417 1.508289,0.378871 c 2.883783,0.724383 6.345444,2.83882 7.740594,4.728078 0.281311,0.380939 0.550781,0.653311 0.598823,0.605271 0.04804,-0.04804 -0.127052,-0.671045 -0.389096,-1.38445 z M 27.744455,51.17008 c -0.671629,-1.656087 -0.68757,-1.776541 -0.68757,-5.195564 0,-3.419023 0.01594,-3.539477 0.68757,-5.195565 l 0.68757,-1.695395 H 27.78764 c -1.266896,0 -3.823222,0.709999 -5.586199,1.551521 -1.911477,0.912404 -3.973845,2.628328 -5.222888,4.345526 l -0.709139,0.974933 0.628048,0.912838 c 2.193401,3.188001 7.062387,5.899508 10.737613,5.97971 l 0.79695,0.01739 z m 5.276061,0.906193 c 1.996801,-0.664232 3.848538,-1.871336 5.630682,-3.670511 1.950141,-1.968777 1.913586,-2.159828 -0.318533,-1.664849 -2.669643,0.591999 -5.91306,2.524968 -7.570913,4.51201 -0.489008,0.586108 -0.952843,1.173211 -1.030745,1.304671 -0.179388,0.302725 1.805681,0.01227 3.289509,-0.481321 z m 19.947963,0.187611 c -3.124442,-3.578038 -5.571267,-5.045298 -9.581951,-5.74591 -0.764484,-0.133545 -1.439704,-0.193076 -1.500486,-0.132291 -0.06079,0.06079 0.761586,0.988356 1.827489,2.061274 1.572987,1.583337 2.288234,2.122361 3.797472,2.861851 1.776093,0.870241 3.968735,1.501914 5.343077,1.539276 l 0.639726,0.01739 z m 5.308722,-0.200186 c 2.077596,-0.64621 4.565407,-2.267375 6.069965,-3.955451 0.606218,-0.680154 1.102206,-1.328817 1.102206,-1.441472 0,-0.288095 -1.811603,-0.01122 -3.422885,0.523142 -2.426139,0.804593 -5.430773,3.013703 -6.894131,5.068806 l -0.440029,0.617964 0.948618,-0.144039 c 0.521743,-0.07922 1.708061,-0.380248 2.636256,-0.66895 z m 19.656301,-0.05461 c -1.007768,-1.272408 -2.99673,-3.025448 -4.260007,-3.754705 -1.879376,-1.08491 -6.520031,-2.360413 -6.124832,-1.683432 0.938167,1.607067 3.693162,3.98223 5.691211,4.906564 1.2033,0.556673 4.028384,1.35627 4.861306,1.375919 0.505165,0.01192 0.503387,0.0029 -0.167678,-0.844346 z m 4.244786,0.525747 c 1.908091,-0.404186 4.193846,-1.486435 5.956914,-2.820458 1.469179,-1.111655 3.433427,-3.517483 3.204772,-3.925249 -1.614441,-2.879141 -5.534041,-5.606491 -9.161686,-6.374925 -2.099366,-0.4447 -2.600315,-0.433776 -2.392827,0.05219 1.24933,2.926012 1.286305,3.113058 1.286305,6.508128 0,3.395071 -0.03696,3.582116 -1.286305,6.508128 -0.207488,0.485964 0.293461,0.496889 2.392827,0.05219 z M 30.201209,51.178798 c 1.844368,-2.263085 5.301824,-4.369299 8.096824,-4.932422 l 1.39692,-0.281446 -1.39692,-0.287962 c -2.953632,-0.608862 -6.33876,-2.695865 -8.253111,-5.088216 -0.558325,-0.697735 -1.097843,-1.185906 -1.198927,-1.084821 -0.101085,0.101085 -0.436485,0.860003 -0.745335,1.686485 -0.747512,2.000343 -0.95029,6.045124 -0.408987,8.158032 0.459788,1.794732 1.18628,3.432477 1.407548,3.173061 0.0952,-0.111614 0.591094,-0.715832 1.101988,-1.342711 z M 80.01367,50.568491 c 1.104,-3.257905 0.934256,-7.220863 -0.448405,-10.468733 l -0.358994,-0.843263 -1.638922,1.764143 c -0.973158,1.047514 -2.278834,2.161773 -3.214206,2.742995 -1.545246,0.960183 -4.438028,2.085798 -5.442175,2.11761 -0.279578,0.0089 0.180774,0.191811 1.022998,0.406565 3.121115,0.795831 5.329959,2.142769 7.677162,4.68146 0.83093,0.898718 1.577995,1.569972 1.660139,1.491671 0.08219,-0.0783 0.416234,-0.929901 0.742403,-1.892448 z M 54.869232,50.404419 c 0.515046,-1.560464 0.595685,-2.16014 0.595685,-4.429903 0,-2.269764 -0.08062,-2.86944 -0.595685,-4.429902 -0.327624,-0.992627 -0.682773,-1.804776 -0.789209,-1.804776 -0.22094,0 -1.000268,1.984502 -1.315274,3.349269 -0.272687,1.181414 -0.272687,4.589403 0,5.770817 0.315006,1.364767 1.094334,3.349269 1.315274,3.349269 0.106436,0 0.461585,-0.812149 0.789209,-1.804774 z m -2.243181,-0.184637 c -0.525699,-1.412839 -0.655317,-5.606027 -0.229281,-7.417295 0.183956,-0.78207 0.408739,-1.618829 0.499518,-1.859466 0.09429,-0.249943 -0.436484,0.116605 -1.238015,0.854954 -2.372463,2.185458 -4.918163,3.543772 -7.420165,3.959187 l -0.975906,0.162033 1.632188,0.41315 c 2.686636,0.680057 5.226821,2.16795 7.195634,4.21479 0.412888,0.429255 0.783099,0.748072 0.822686,0.708483 0.03959,-0.03959 -0.08941,-0.505715 -0.286659,-1.035836 z m 4.619802,-0.815929 c 1.536092,-1.368295 4.241461,-2.73813 6.184924,-3.131672 l 1.372193,-0.277863 -1.556126,-0.365669 c -2.192084,-0.515114 -4.504065,-1.759002 -6.33585,-3.408811 -0.863415,-0.777637 -1.598393,-1.383045 -1.633292,-1.345352 -0.03489,0.03769 0.117275,0.757632 0.338149,1.59986 0.645533,2.461499 0.487844,6.052281 -0.36507,8.312903 -0.152357,0.403817 -0.132423,0.412419 0.258717,0.111654 0.233087,-0.179228 1.014441,-0.852001 1.736355,-1.49505 z M 44.500214,45.197559 c 2.693293,-0.524046 5.572323,-2.257999 7.693358,-4.633481 1.427166,-1.598375 1.333397,-1.689499 -1.200875,-1.166998 -3.141698,0.647739 -6.409844,2.718564 -8.545051,5.414483 l -0.686042,0.866198 0.851162,-0.139284 c 0.468142,-0.0766 1.317493,-0.230019 1.887448,-0.340918 z m 20.932266,-0.02028 c -0.787166,-1.470834 -3.748186,-3.904465 -5.91793,-4.863888 -1.238358,-0.54758 -4.509845,-1.358605 -4.702641,-1.165815 -0.208687,0.208691 2.782189,3.188184 4.035329,4.019969 1.764888,1.171465 4.501238,2.180212 6.664525,2.456855 0.09447,0.01208 0.05879,-0.189123 -0.07929,-0.447121 z m 4.720244,-0.117159 c 2.934884,-0.716951 5.782812,-2.597537 7.810238,-5.157373 l 0.698416,-0.88182 -1.082297,0.159395 c -1.954335,0.287828 -4.531764,1.279559 -6.165726,2.372418 -1.384107,0.925746 -3.296837,2.807 -3.839036,3.775845 -0.195003,0.348457 0.237213,0.303457 2.578405,-0.268465 z M 39.63862,44.556358 c -1.052044,-1.328314 -2.972371,-2.955764 -4.361037,-3.695915 -1.280066,-0.682268 -5.070296,-1.879062 -5.498707,-1.736256 -0.390625,0.130208 1.458048,2.263623 2.920673,3.370528 2.143116,1.621898 5.086505,2.864705 6.899764,2.913335 l 0.729354,0.01955 -0.690047,-0.871253 z m 53.097722,-1.425733 c 0.536989,-1.553314 0.605011,-2.061886 0.605011,-4.523256 V 35.8342 l -1.364634,-2.695844 c -0.750547,-1.482714 -1.737322,-3.185703 -2.192829,-3.784419 -1.878169,-2.468629 -5.250164,-4.226494 -9.211337,-4.801977 -0.857313,-0.124551 -0.939415,-0.09873 -0.797352,0.250724 1.780721,4.380326 1.897078,8.649595 0.337049,12.366717 l -0.61972,1.476634 h 0.818809 c 1.211304,0 3.943809,0.75446 5.406241,1.492693 1.871885,0.944924 3.8362,2.495805 5.031637,3.972621 0.698822,0.863312 1.103835,1.207329 1.215149,1.032137 0.09183,-0.144525 0.439217,-1.050312 0.771976,-2.012858 z m -74.722965,0.04435 c 1.659364,-1.651816 2.392465,-2.205365 3.902633,-2.946802 1.883542,-0.924749 4.346038,-1.582143 5.926457,-1.582143 h 0.866358 l -0.357796,-0.691899 c -0.656491,-1.269513 -1.170665,-3.043524 -1.415607,-4.884158 -0.297753,-2.237482 -0.0096,-4.4681 0.89892,-6.959741 l 0.622505,-1.70715 -1.028122,0.138665 c -3.595703,0.484959 -6.526688,1.822972 -8.742551,3.991029 -1.783481,1.745005 -2.871557,3.474625 -3.656136,5.811847 -0.484016,1.441857 -0.5746,2.099201 -0.577115,4.187973 -0.0017,1.362716 0.111795,2.903923 0.25208,3.424901 0.298004,1.106706 1.083725,3.251355 1.191176,3.251355 0.04071,0 0.993456,-0.915243 2.117198,-2.033874 z m 47.469125,0.33848 c -0.524356,-1.361151 -0.568946,-1.741821 -0.570128,-4.867425 -0.0017,-3.172293 0.03712,-3.489465 0.59466,-4.922114 0.327764,-0.842227 0.446379,-1.334439 0.263579,-1.093802 -2.08598,2.745968 -5.427589,4.944219 -8.852905,5.823814 l -0.984419,0.252794 1.282269,0.298265 c 2.690669,0.625869 5.727243,2.498388 7.701471,4.749163 0.593585,0.676729 1.09164,1.23166 1.106787,1.233178 0.01513,0.0016 -0.228448,-0.661725 -0.541314,-1.473873 z m -25.6016,-0.328138 c -0.4806,-1.379295 -0.552933,-1.956685 -0.554965,-4.429903 -0.0023,-2.818912 0.221768,-3.943999 1.303086,-6.54255 0.16254,-0.390608 0.09519,-0.408035 -1.054688,-0.272888 -3.490947,0.410292 -7.011282,2.466668 -9.403398,5.492921 l -0.857411,1.084705 1.715568,0.371405 c 3.433278,0.743274 5.482188,1.841875 7.731484,4.145531 0.902388,0.924196 1.647961,1.693054 1.65683,1.708575 0.0089,0.01551 -0.23256,-0.685488 -0.536506,-1.557796 z M 41.9478,42.923166 c 0.526638,-1.689116 0.568263,-2.089171 0.483695,-4.648663 -0.07213,-2.183082 -0.204399,-3.126046 -0.59994,-4.277131 -0.279073,-0.812149 -0.587716,-1.476634 -0.685871,-1.476634 -0.301496,0 -1.247439,3.322827 -1.40412,4.932275 -0.08145,0.836639 -0.04256,2.273997 0.08642,3.19413 0.247837,1.768024 1.01773,4.12419 1.347608,4.12419 0.107788,0 0.455278,-0.831676 0.772205,-1.848167 z m 25.581152,-0.782181 c 0.424246,-1.637228 0.421393,-5.219423 -0.0058,-6.894468 -0.418764,-1.643126 -0.762676,-2.507019 -0.998037,-2.507019 -0.450009,0 -1.145051,3.010676 -1.241168,5.376257 -0.10097,2.48507 0.14847,4.061757 0.938894,5.934763 l 0.350345,0.830194 0.314337,-0.739303 c 0.172879,-0.406617 0.461386,-1.306808 0.641119,-2.000424 z m 3.642296,-1.001873 c 1.738422,-1.155702 4.476996,-2.191898 6.358456,-2.40585 l 1.251677,-0.142337 -0.704774,-0.985473 c -1.761473,-2.463022 -4.82811,-4.51171 -7.947828,-5.309601 -1.55372,-0.397374 -3.148077,-0.566764 -3.148077,-0.334462 0,0.05331 0.288615,0.963905 0.641366,2.023536 1.097014,3.295307 1.093119,6.230599 -0.01257,9.444227 -0.225546,0.655552 -0.410082,1.2425 -0.410082,1.304326 0,0.06183 0.544993,-0.489823 1.211098,-1.225888 0.666104,-0.736069 1.908413,-1.801881 2.760699,-2.368478 z M 47.041807,40.318554 c 0.851353,-0.447374 2.265017,-0.997087 3.141473,-1.221585 1.431443,-0.366654 1.526792,-0.422983 0.937273,-0.553716 -2.864834,-0.635318 -5.697894,-2.189237 -7.771022,-4.262363 l -1.45104,-1.451041 0.528128,1.518631 c 0.721177,2.073748 0.756459,6.286398 0.0708,8.454007 -0.247384,0.782069 -0.451059,1.456781 -0.452612,1.499359 -0.0016,0.04258 0.773857,-0.653226 1.72313,-1.546235 1.005478,-0.945882 2.372106,-1.963195 3.273868,-2.437057 z m 5.94046,-2.543359 c -0.826001,-1.543398 -4.240392,-4.18806 -6.497063,-5.032389 -1.360788,-0.509137 -4.139632,-1.036096 -4.350694,-0.825034 -0.231145,0.231147 1.666954,2.322542 3.075639,3.388849 2.166791,1.640158 5.180437,2.852801 7.175974,2.887497 0.759223,0.01319 0.808774,-0.02161 0.596144,-0.418923 z m 5.311346,-0.257234 c 0.747232,-0.243314 1.900039,-0.746484 2.561786,-1.118156 1.389176,-0.780231 5.069356,-4.331504 4.641953,-4.479362 -0.585342,-0.2025 -3.636525,0.669889 -5.360031,1.53253 -1.346579,0.673984 -2.220072,1.323117 -3.492106,2.595153 -0.932991,0.932992 -1.696353,1.811937 -1.696353,1.953208 0,0.333213 1.504864,0.115734 3.344751,-0.483373 z m -23.470726,-4.52887 c 1.816781,-0.880831 3.977947,-1.562157 4.955164,-1.562157 0.803276,0 0.756917,-0.296258 -0.246394,-1.57458 -2.196438,-2.798488 -5.744858,-4.71459 -9.77828,-5.28015 l -0.803679,-0.11269 -0.537057,1.350794 c -0.774527,1.948074 -1.027615,3.382227 -1.027615,5.823113 0,2.142626 0.445811,4.224339 1.231936,5.75252 l 0.308328,0.599371 2.019066,-2.047347 c 1.680173,-1.703708 2.331171,-2.198667 3.878531,-2.948874 z m 45.187781,3.023681 c 1.099693,-3.170699 0.921854,-7.445243 -0.43286,-10.404324 l -0.544927,-1.190277 -0.939903,0.132964 c -3.917757,0.554227 -6.182353,1.676331 -8.903903,4.411872 -2.126015,2.136934 -2.240288,2.452382 -0.891419,2.460579 0.999863,0.0061 3.790667,0.894722 5.351671,1.704077 1.112815,0.576981 2.076298,1.347351 3.503739,2.801476 1.082867,1.103112 2.041415,1.94053 2.130116,1.86093 0.0887,-0.0796 0.416068,-0.879386 0.727486,-1.777297 z M 55.000075,35.479527 c 0.38259,-1.230165 0.47631,-2.060694 0.469621,-4.161973 -0.0074,-2.287688 -0.0872,-2.857116 -0.621722,-4.429902 -0.337347,-0.992627 -0.688072,-1.804775 -0.779385,-1.804775 -0.233335,0 -0.828954,1.555858 -1.203284,3.143175 -0.364108,1.543972 -0.41211,4.607535 -0.09472,6.044771 0.11957,0.541433 0.42921,1.563069 0.688084,2.270302 0.429802,1.174211 0.496418,1.250681 0.76705,0.880563 0.163006,-0.222923 0.511466,-1.096896 0.774351,-1.942161 z M 52.513122,35.20529 c -0.764511,-2.757063 -0.473219,-6.871964 0.676301,-9.553684 0.25183,-0.587496 0.422063,-1.103985 0.3783,-1.147752 -0.04374,-0.04377 -0.944341,0.07122 -2.00127,0.255538 -2.204201,0.38438 -4.672033,1.441938 -6.387972,2.737484 -1.139861,0.860604 -3.355254,3.318583 -3.355254,3.722656 0,0.114071 0.369159,0.208857 0.820352,0.210636 2.601224,0.01026 5.962227,1.47146 8.482338,3.687728 0.959598,0.843898 1.756112,1.539972 1.770036,1.546828 0.01392,0.0069 -0.158352,-0.649889 -0.382831,-1.459434 z m 7.191264,-2.092415 c 1.544253,-0.811486 4.316495,-1.685941 5.34485,-1.685941 0.326194,0 0.644665,-0.08347 0.70771,-0.18548 0.063,-0.102014 -0.415076,-0.827677 -1.062511,-1.612583 -1.32686,-1.608624 -3.787485,-3.371089 -5.741447,-4.112422 -1.158521,-0.439541 -4.226853,-1.109962 -4.408098,-0.963155 -0.04167,0.03378 0.17158,0.683581 0.47397,1.443996 1.269553,3.192521 1.344743,6.70323 0.221561,10.345403 -0.07888,0.255823 0.499543,-0.154432 1.422347,-1.008809 0.85542,-0.791988 2.224149,-1.791443 3.041618,-2.221009 z M 42.027387,29.98614 c 0.874291,-1.283624 3.201954,-3.268319 4.846844,-4.132684 1.657767,-0.871133 3.609357,-1.501917 5.415235,-1.750289 0.620439,-0.08533 1.128074,-0.236186 1.128074,-0.33523 0,-0.460904 -3.365516,-3.689349 -4.621342,-4.433124 -1.631566,-0.966309 -4.163405,-1.816465 -6.042836,-2.029099 -1.304767,-0.147617 -1.335453,-0.138762 -1.653892,0.477278 -0.178451,0.345227 -0.548999,1.366003 -0.823441,2.26839 -0.583461,1.918468 -0.699912,5.789104 -0.223667,7.434294 0.449689,1.553449 1.132322,3.285114 1.294371,3.283482 0.0816,-8.26e-4 0.387889,-0.353181 0.680654,-0.783018 z m 25.28795,-1.683846 c 0.949139,-3.004554 0.713291,-7.008015 -0.591542,-10.041173 l -0.471093,-1.095079 -1.222011,0.148087 c -3.653574,0.442749 -7.236083,2.458927 -9.508319,5.351112 l -1.022758,1.301807 0.826216,0.129336 c 4.126138,0.645905 7.585296,2.52709 9.834389,5.348214 1.24885,1.566485 1.309579,1.534294 2.155118,-1.142304 z m 4.251475,-2.01146 c 1.656682,-1.00638 3.672805,-1.748735 5.640047,-2.076716 l 1.585122,-0.264273 -1.038219,-1.321959 c -1.293258,-1.646699 -3.064206,-3.024746 -5.133179,-3.994341 -1.441654,-0.675608 -4.285506,-1.42605 -5.404124,-1.42605 -0.437623,0 -0.437665,0.0031 -0.01248,0.994951 0.84706,1.976114 1.16191,3.636849 1.159273,6.114768 -0.0025,2.075844 -0.08982,2.663804 -0.637861,4.280633 l -0.635305,1.874267 1.604271,-1.70545 c 0.882357,-0.937997 2.174961,-2.052121 2.87246,-2.47583 z M 39.818235,28.45487 c -0.403085,-1.098357 -0.474752,-1.756348 -0.474491,-4.356416 2.19e-4,-2.903689 0.03626,-3.158495 0.692994,-4.909295 0.380978,-1.015656 0.692686,-1.883058 0.692686,-1.927559 0,-0.180603 -2.18324,0.251764 -3.765857,0.745785 -2.634038,0.822227 -5.27734,2.753741 -7.045662,5.148403 l -0.596233,0.807419 0.836452,0.13325 c 1.605682,0.255791 4.429626,1.254219 5.789724,2.047004 0.753805,0.439384 2.014984,1.439691 2.802617,2.222904 0.78763,0.783213 1.456924,1.414629 1.487314,1.403147 0.03039,-0.01148 -0.158403,-0.60307 -0.419544,-1.314642 z M 21.640666,25.768375 c 1.715874,-0.86528 3.85413,-1.498669 5.66053,-1.676747 l 1.505774,-0.148443 0.765662,-1.110956 c 1.030148,-1.49472 3.573708,-3.627605 5.371324,-4.504089 1.594631,-0.777511 4.337393,-1.558167 5.474478,-1.558167 0.57566,0 0.8019,-0.144123 1.17572,-0.748975 0.7092,-1.14751 3.955706,-4.107734 5.166015,-4.710468 0.593435,-0.295531 1.669629,-0.763313 2.391539,-1.039515 L 50.464271,9.7688286 49.151708,9.8919267 C 37.374753,10.996422 25.67738,17.679272 18.602319,27.345161 l -1.095471,1.496623 1.437026,-1.219067 c 0.790365,-0.670487 2.003921,-1.504941 2.696792,-1.854342 z m 65.692686,0.134854 C 85.901206,24.08446 82.345047,20.561443 80.434476,19.068652 76.31472,15.849756 71.873642,13.473047 66.980702,11.868662 64.034755,10.902694 59.928468,9.9837451 58.601998,9.9935864 c -0.6371,0.00473 -0.588872,0.050846 0.537775,0.5142576 2.604564,1.071308 4.995381,2.930981 6.628823,5.156178 0.755367,1.029012 0.784016,1.044 2.257245,1.180922 1.716288,0.159513 3.742481,0.778998 5.577226,1.705176 1.346414,0.679666 4.447131,3.47016 5.188046,4.668987 0.40823,0.660538 0.549805,0.718974 2.351436,0.970597 2.156218,0.301146 4.232441,1.05066 5.854745,2.113559 0.601588,0.394149 1.126788,0.723796 1.167103,0.732547 0.04035,0.0088 -0.33366,-0.500909 -0.831045,-1.132581 z M 56.680487,20.750262 c 1.838689,-1.788445 4.58678,-3.186324 7.31549,-3.721199 l 1.937394,-0.379764 -0.86048,-1.088584 c -3.00389,-3.800209 -7.35674,-5.7861925 -12.073672,-5.508595 -3.005344,0.176869 -5.379116,1.087784 -8.032599,3.082443 -1.161267,0.87294 -3.143393,3.074601 -3.143393,3.491547 0,0.07912 0.27958,0.143863 0.621289,0.143863 1.103394,0 4.039815,0.853998 5.648185,1.642658 1.693279,0.830296 4.50796,3.270282 5.356746,4.643647 l 0.490655,0.793891 0.661144,-0.86028 c 0.363623,-0.473155 1.299285,-1.480986 2.079241,-2.239627 z"
       id="path232"
       sodipodi:nodetypes="cssscsssssssscssscsscssscsssscsssssssscssssssscsscsscsssssssssssssscscsssscscccssssscsccsssscsssssssssssssssssssssssssssssssssssssccssssssssssssscsscssssscsscsscssssssccsssssssssssssssssssssssscssssscsscssssssssscsssscsscscsssssssscssscssssssssssscsscssscsscssssssssscscscssssssscsscssssssssssssssssssscsssssssssssssssssssssssssssscssssscsssssssscsssssssscssssssscsssscssccsscsssccsssscsssssssssscsssssscssssssssssssscsssssssssscscsscsssssssscccssscsssssssssscsscsssssssssscscsscssssssscssscsscssssssssssssscsssssscsscsssscsscscsssssscssssssscscsssssccsscsssssssssscsssssscssssssssssscssssssssssscsssscsssscccsscssscscssssssssscssscssscssssscssscsscsssssscssssssssssssccssscscccscsssssssccsssscsscssscsssccssssssssssscssscsssscsscssssscssssssssscsssssssssccscscssssssssssssssscsscssssscsssscscssscsssscssssssscsssssscsscsscssssssssssscsscssssssscss"
       inkscape:export-filename="/Users/xunorus/xunserver/iurisnaturalis/design/solologo.png"
       inkscape:export-xdpi="96"
       inkscape:export-ydpi="96" />
  </g>
</svg>
